<svg width="34" height="31" viewBox="0 0 34 31" fill="none" xmlns="http://www.w3.org/2000/svg">
<path fill-rule="evenodd" clip-rule="evenodd" d="M0.781912 16.7426L7.35234 29.1597C7.89894 30.1927 8.99242 30.8418 10.1859 30.8418H23.8141C25.0076 30.8418 26.1011 30.1927 26.6477 29.1597L33.2181 16.7426C33.7065 15.8195 33.6884 14.7197 33.1699 13.8123L26.6688 2.43632C26.1063 1.45207 25.0403 0.841797 23.8834 0.841797H10.1166C8.95971 0.841797 7.89367 1.45207 7.3312 2.43632L0.830104 13.8123C0.311551 14.7197 0.293464 15.8195 0.781912 16.7426ZM19.0315 11.6725C17.8667 10.5385 16.0107 10.5385 14.8459 11.6725L13.3639 13.1154C12.1543 14.2931 12.1543 16.2366 13.3639 17.4143L14.8459 18.8572C16.0107 19.9913 17.8667 19.9913 19.0315 18.8572L20.5135 17.4143C21.7231 16.2366 21.7231 14.2931 20.5135 13.1154L19.0315 11.6725Z" fill="#353B66"/>
</svg>
