<?xml version="1.0" encoding="utf-8"?>
<!-- Generator: Adobe Illustrator 25.2.1, SVG Export Plug-In . SVG Version: 6.00 Build 0)  -->
<svg version="1.1" id="Layer_1" xmlns="http://www.w3.org/2000/svg" xmlns:xlink="http://www.w3.org/1999/xlink" x="0px" y="0px"
	 viewBox="0 0 48.19 38.86" style="enable-background:new 0 0 48.19 38.86;" xml:space="preserve">
<style type="text/css">
	.st0{fill:url(#SVGID_1_);stroke:#16191B;stroke-width:1.5;stroke-linecap:round;stroke-linejoin:round;stroke-miterlimit:10;}
	.st1{fill:url(#SVGID_2_);stroke:#16191B;stroke-width:1.5;stroke-linecap:round;stroke-linejoin:round;stroke-miterlimit:10;}
</style>
<radialGradient id="SVGID_1_" cx="-261.1907" cy="468.9311" r="1" gradientTransform="matrix(-9.0058 14.4094 13.0547 8.1591 -8455.6709 -40.0692)" gradientUnits="userSpaceOnUse">
	<stop  offset="0.2704" style="stop-color:#8759A4"/>
	<stop  offset="0.8546" style="stop-color:#B3509E"/>
</radialGradient>
<path class="st0" d="M9.39,9.39L0.76,0.76h11.67l14,14h-10.5c-4.43,0-8.17,3.73-8.17,8.17s3.73,8.17,8.17,8.17h3.5l7,7h-10.5
	c-8.4,0-15.17-6.77-15.17-15.17C0.76,17.09,4.49,11.96,9.39,9.39z"/>
<radialGradient id="SVGID_2_" cx="-261.1907" cy="468.9311" r="1" gradientTransform="matrix(-9.0058 14.4094 13.0547 8.1591 -8434.6709 -40.0692)" gradientUnits="userSpaceOnUse">
	<stop  offset="0.2704" style="stop-color:#8759A4"/>
	<stop  offset="0.8546" style="stop-color:#B3509E"/>
</radialGradient>
<path class="st1" d="M38.79,29.46l8.63,8.63H35.76l-14-14h10.5c4.43,0,8.17-3.73,8.17-8.17s-3.73-8.17-8.17-8.17h-3.5l-7-7h10.5
	c8.4,0,15.17,6.77,15.17,15.17C47.42,21.76,43.69,26.89,38.79,29.46z"/>
</svg>
